<svg xmlns="http://www.w3.org/2000/svg" viewBox="0 0 304 84" role="img" aria-labelledby="title">
  <title id="title">Quantiles</title>
  <path fill="#4D68D1" d="M24.25 66.94Q20 66.94 16.09 65.47Q12.19 64 9.13 61.19Q6.06 58.38 4.28 54.31Q2.50 50.25 2.50 45.06Q2.50 39.88 4.28 35.81Q6.06 31.75 9.13 28.94Q12.19 26.13 16.09 24.66Q20 23.19 24.25 23.19Q28.50 23.19 32.41 24.66Q36.31 26.13 39.38 28.94Q42.44 31.75 44.22 35.81Q46 39.88 46 45.06Q46 50.25 44.22 54.31Q42.44 58.38 39.38 61.19Q36.31 64 32.41 65.47Q28.50 66.94 24.25 66.94ZM47.19 76.69Q43.44 76.69 39.19 75.66Q34.94 74.63 31.03 72.44Q27.13 70.25 24.25 66.94L33.63 64.56Q35.44 65.69 37.63 66.19Q39.81 66.69 42.25 66.81Q44.69 66.94 47.19 66.94ZM24.25 56Q27.06 56 29.28 54.56Q31.50 53.13 32.75 50.66Q34 48.19 34 45.06Q34 41.94 32.75 39.47Q31.50 37 29.28 35.56Q27.06 34.13 24.25 34.13Q21.44 34.13 19.25 35.56Q17.06 37 15.78 39.47Q14.50 41.94 14.50 45.06Q14.50 48.19 15.78 50.66Q17.06 53.13 19.25 54.56Q21.44 56 24.25 56ZM67.75 66.94Q63.31 66.94 59.88 65.31Q56.44 63.69 54.47 60.63Q52.50 57.56 52.50 53.25L52.50 34.13L63.31 34.13L63.31 50.38Q63.31 53.63 64.34 55.13Q65.38 56.63 67.75 56.63Q70.13 56.63 71.16 55.13Q72.19 53.63 72.19 50.38L72.19 34.13L83 34.13L83 53.25Q83 57.56 81.03 60.63Q79.06 63.69 75.63 65.31Q72.19 66.94 67.75 66.94ZM103 66.94Q99.44 66.94 96.31 65.13Q93.19 63.31 91.22 59.53Q89.25 55.75 89.25 50Q89.25 44.63 91.22 40.88Q93.19 37.13 96.47 35.16Q99.75 33.19 103.63 33.19Q106.13 33.19 108.53 34.28Q110.94 35.38 112.50 37.06L112.50 34.13L123.25 34.13L123.25 66L112.50 66L112.50 60.69Q111.31 63.31 108.88 65.13Q106.44 66.94 103 66.94ZM106.19 56.06Q107.56 56.06 109 55.34Q110.44 54.63 111.47 53.16Q112.50 51.69 112.50 49.38L112.50 46.31Q111.13 45.19 109.41 44.44Q107.69 43.69 105.88 43.69Q104.31 43.69 103.09 44.56Q101.88 45.44 101.19 46.88Q100.50 48.31 100.50 50Q100.50 51.69 101.22 53.06Q101.94 54.44 103.22 55.25Q104.50 56.06 106.19 56.06ZM152 66L152 48Q152 45.63 150.69 44.66Q149.38 43.69 147.75 43.69Q146 43.69 144.81 44.59Q143.63 45.50 142.75 46.75L142.75 38.25Q143.75 36.88 145.03 35.72Q146.31 34.56 147.97 33.88Q149.63 33.19 151.75 33.19Q155 33.19 157.50 34.66Q160 36.13 161.41 39.06Q162.81 42 162.81 46.31L162.81 66ZM132 66L132 34.13L142.75 34.13L142.75 66ZM183.38 66.94Q180.38 66.94 177.78 65.56Q175.19 64.19 173.59 61.63Q172 59.06 172 55.44L172 42.56L167.50 42.56L167.50 36Q170.56 35.19 172.47 32.63Q174.38 30.06 175.75 26L182.75 26L182.75 34.13L191.75 34.13L191.75 42.56L182.75 42.56L182.75 51.50Q182.75 53.81 183.66 55.16Q184.56 56.50 186.75 56.50Q188.63 56.50 189.84 55.84Q191.06 55.19 192.25 54.50L192.25 63.50Q191.25 64.88 188.88 65.91Q186.50 66.94 183.38 66.94ZM207.47 29.25Q204.75 29.25 202.75 27.34Q200.75 25.44 200.75 22.77Q200.75 20 202.75 18.13Q204.75 16.25 207.47 16.25Q209.25 16.25 210.78 17.13Q212.31 18 213.25 19.47Q214.19 20.94 214.19 22.77Q214.19 24.50 213.25 26Q212.31 27.50 210.78 28.38Q209.25 29.25 207.47 29.25ZM203.06 66L203.06 34.13L213.81 34.13L213.81 66ZM197.88 42.88L197.88 34.13L213.81 34.13L213.81 42.88ZM222.31 66L222.31 21L233.06 21L233.06 66ZM257.19 66.94Q253.81 66.94 250.66 65.81Q247.50 64.69 245 62.56Q242.50 60.44 241.06 57.41Q239.63 54.38 239.63 50.56Q239.63 45.81 241.84 41.88Q244.06 37.94 247.91 35.56Q251.75 33.19 256.56 33.19Q261.06 33.19 264.56 35.19Q268.06 37.19 270.03 40.78Q272 44.38 272 49.31L272 53L249.44 53L249.44 46.50L261.81 46.50Q261.81 45 261 44Q260.19 43 258.94 42.53Q257.69 42.06 256.25 42.06Q254.38 42.06 252.97 42.97Q251.56 43.88 250.75 45.75Q249.94 47.63 249.94 50.56Q249.94 52.94 250.97 54.50Q252 56.06 253.81 56.81Q255.63 57.56 257.81 57.56Q261.44 57.56 264.09 56.53Q266.75 55.50 268.06 54.75L268.06 63.94Q267 64.63 265.34 65.31Q263.69 66 261.63 66.47Q259.56 66.94 257.19 66.94ZM287.75 66.94Q285.38 66.94 283.22 66.47Q281.06 66 279.19 65.19Q277.31 64.38 275.88 63.38L275.88 55Q277.38 55.94 279.19 56.66Q281 57.38 282.78 57.81Q284.56 58.25 286.06 58.25Q287.88 58.25 288.72 57.81Q289.56 57.38 289.56 56.25Q289.56 55.38 288.56 54.91Q287.56 54.44 285.69 53.81L282.50 52.81Q279 51.75 277.38 49.47Q275.75 47.19 275.75 43.88Q275.75 40.56 277.50 38.19Q279.25 35.81 282.28 34.50Q285.31 33.19 289.06 33.19Q292.19 33.19 294.84 34.09Q297.50 35 299.13 36.56L299.13 45Q297.50 44 295.44 43.09Q293.38 42.19 291 42.19Q289.50 42.19 288.34 42.78Q287.19 43.38 287.19 44.63Q287.19 45.50 287.88 45.94Q288.56 46.38 290.56 46.88L292.50 47.38Q296.75 48.44 298.78 50.66Q300.81 52.88 300.81 56.31Q300.81 59.44 298.97 61.84Q297.13 64.25 294.16 65.59Q291.19 66.94 287.75 66.94Z"/>
</svg>
